<?xml version="1.0" standalone="no"?>
<!DOCTYPE svg PUBLIC "-//W3C//DTD SVG 20010904//EN"
 "http://www.w3.org/TR/2001/REC-SVG-20010904/DTD/svg10.dtd">
<svg version="1.0" xmlns="http://www.w3.org/2000/svg"
 width="700.000000pt" height="700.000000pt" viewBox="0 0 700.000000 700.000000"
 preserveAspectRatio="xMidYMid meet">
<metadata>
Created by potrace 1.14, written by Peter Selinger 2001-2017
</metadata>
<g transform="translate(0.000000,700.000000) scale(0.100000,-0.100000)"
fill="#000000" stroke="none">
<path d="M4032 6693 c-36 -18 -52 -46 -52 -94 0 -22 -31 -76 -113 -197 -62
-92 -135 -207 -161 -257 -43 -80 -171 -285 -203 -325 -7 -8 -76 -105 -153
-215 -164 -232 -158 -225 -198 -247 -40 -21 -63 -59 -108 -176 -51 -131 -60
-139 -162 -141 l-33 -1 5 -51 c4 -32 16 -65 35 -92 63 -92 76 -198 42 -356
-10 -46 -16 -105 -15 -130 23 -459 23 -699 -1 -1101 -4 -67 -7 -167 -6 -197 1
-13 12 -30 25 -38 48 -32 97 21 110 120 3 22 9 62 12 90 3 27 8 61 11 75 2 14
5 113 7 220 3 156 0 216 -15 300 -25 147 -33 236 -33 380 1 203 22 400 43 400
14 0 122 -103 136 -131 17 -32 23 -70 25 -149 l1 -55 44 50 45 50 55 -30 c105
-56 193 -130 305 -254 53 -59 92 -92 132 -112 122 -62 137 -95 139 -312 0 -89
2 -238 4 -332 4 -166 5 -609 2 -810 -2 -80 2 -109 17 -143 11 -23 16 -45 12
-49 -4 -4 -34 -9 -66 -10 -106 -4 -132 -29 -165 -160 -13 -54 -38 -138 -55
-188 -28 -81 -52 -174 -64 -252 -9 -54 -26 -179 -32 -228 -3 -27 -14 -106 -25
-175 -11 -69 -22 -136 -24 -150 -5 -36 -14 -149 -20 -265 -5 -91 -9 -129 -20
-205 -3 -14 -9 -54 -14 -90 -10 -72 -36 -236 -49 -316 -5 -28 -8 -57 -7 -65 1
-8 6 -40 9 -73 l8 -58 -61 7 c-43 5 -66 3 -76 -5 -20 -16 -19 -83 0 -120 l16
-30 104 0 c105 0 110 2 106 37 -1 7 21 34 48 60 72 70 71 63 96 533 6 108 20
180 34 180 13 0 41 -72 45 -120 3 -25 11 -74 19 -110 17 -86 14 -165 -13 -275
-37 -153 -33 -220 14 -279 20 -26 25 -27 99 -24 l78 3 -35 58 -36 59 26 43
c26 45 30 60 39 135 3 25 8 65 11 90 11 83 11 188 -1 270 -15 106 -13 986 3
1002 7 7 25 6 58 -6 26 -9 51 -16 54 -16 17 0 29 128 32 315 1 110 5 225 9
255 4 30 9 78 13 105 7 65 14 137 22 260 3 55 7 102 9 105 2 3 6 30 10 60 4
30 9 58 10 61 2 3 7 28 11 55 3 27 8 52 11 57 2 4 7 20 9 35 3 15 25 117 50
227 43 191 80 309 93 303 3 -2 68 -34 143 -72 121 -61 145 -69 206 -74 62 -4
71 -2 80 15 10 18 -12 38 -209 188 -185 143 -217 171 -205 183 18 18 79 -10
206 -96 146 -98 185 -116 253 -113 53 2 21 81 -56 138 -198 147 -392 283 -406
284 -9 1 -52 2 -96 3 -67 1 -90 7 -145 33 -73 35 -105 65 -115 104 -6 25 -4
27 34 34 23 4 41 11 41 16 0 20 -73 88 -199 185 -147 112 -158 122 -333 285
-118 111 -135 137 -130 199 1 14 27 140 58 280 31 140 56 272 56 294 0 55 -15
64 -40 24 -31 -51 -48 -100 -92 -268 -59 -228 -72 -267 -90 -262 -44 14 -135
100 -156 149 -32 75 -12 134 80 232 36 38 68 82 72 98 22 90 110 219 264 385
116 127 173 199 215 273 15 28 51 86 80 130 56 87 137 231 174 310 13 28 35
75 49 105 34 72 35 126 3 151 -28 23 -37 23 -79 2z m-831 -1855 c26 -24 49
-62 54 -87 l4 -22 -40 23 c-47 26 -65 52 -75 104 l-7 39 23 -20 c13 -11 32
-28 41 -37z"/>
<path d="M4085 4989 c-9 -39 2 -115 22 -153 9 -16 34 -48 57 -70 23 -23 54
-59 70 -80 35 -47 29 -63 -31 -83 -46 -16 -50 -25 -47 -118 2 -109 14 -159 55
-242 41 -85 62 -106 114 -109 64 -5 95 7 109 41 52 123 52 310 0 463 -57 170
-141 285 -259 353 -65 37 -82 37 -90 -2z"/>
</g>
</svg>
