<?xml version="1.0" encoding="utf-8"?>
<!-- Generator: Adobe Illustrator 25.0.0, SVG Export Plug-In . SVG Version: 6.00 Build 0)  -->
<svg version="1.1" id="Layer_1" xmlns="http://www.w3.org/2000/svg" xmlns:xlink="http://www.w3.org/1999/xlink" x="0px" y="0px"
	 viewBox="0 0 1000 1000" style="enable-background:new 0 0 1000 1000;" xml:space="preserve">
<style type="text/css">
	.st0{fill:#0F0F0F;}
	.st1{fill:#FFFFFF;}
</style>
<rect class="st0" width="1000" height="1000"/>
<g>
	<path class="st1" d="M805.58,599.78c-8.27,2.65-14.54-1.57-20.6-5.15c-7.73-4.56-14.84-10.15-22.49-14.86
		c-3.59-2.21-7.81-3.4-11.74-5.05c-0.67,1.13-1.34,2.27-2.01,3.4c16.73,12.86,33.47,25.72,50.2,38.58
		c-0.58,1.18-1.16,2.36-1.74,3.54c-18.7,3.77-32.83-9.8-49.5-16.69c-1.72,4.24-3.4,7.21-4.12,10.39
		c-5.59,24.44-11.87,48.78-16.18,73.45c-3.09,17.64-2.55,35.9-5.3,53.62c-3.11,20.06-1.63,40.1-2.34,60.15
		c-0.15,4.26-1.61,8.47-2.63,13.56c-5.39-1.68-8.88-2.77-13.77-4.29c-0.43,9.91-1.1,19.14-1.19,28.38
		c-0.21,23.08-0.27,46.15-0.15,69.23c0.03,6.4,0.3,12.9,1.48,19.17c3.09,16.36-0.62,32.34-2.28,48.4c-0.4,3.91-3.73,7.52-6.38,12.54
		c2.36,3.98,5.13,8.66,8.82,14.88c-3.5,1.81-7.28,3.76-9.47,4.88c-20.92-9.93-17.09-25.1-12.82-41.03
		c3.09-11.54,3.7-23.45,0.28-35.32c-1.29-4.47-1.06-9.35-2.03-13.94c-0.54-2.55-2.12-4.88-4.24-9.52c-1.73,4.22-2.99,5.97-3.11,7.8
		c-1.21,18.73-2.09,37.47-3.35,56.19c-0.66,9.81-3.94,18.39-13.78,22.92c0,3.68,0,7.04,0,12.28c-5.41,1.21-10.89,2.44-16.23,3.64
		c-3.8-4.27-7.79-7.32-9.73-11.36c-1.81-3.76-3.08-9.29-1.59-12.73c1.79-4.14,7.07-3.76,11.38-1.56c1.03,0.52,2.46,0.26,4.37,0.4
		c0.54-1.53,1.91-3.39,1.45-4.43c-4.16-9.3-0.94-18.37,0.24-27.59c2.86-22.45,8.05-44.48,8.32-67.43
		c0.21-18.64,4.32-37.25,6.88-55.85c2.04-14.8,3.57-29.74,6.81-44.29c3.03-13.58,9.58-26.48,11.76-40.13
		c2.59-16.25,12.74-16.29,24.7-15.41c0.33,0.02,0.69-0.45,1.07-0.72c0.22-0.77,0.9-1.84,0.61-2.33
		c-7.53-12.56-4.69-25.66-3.31-39.13c1.34-13.11-0.05-26.5-0.23-39.76c-0.23-17.05-0.41-34.09-0.7-51.14
		c-0.16-9.85-1.39-19.78-0.51-29.53c1.22-13.47-3.96-22.51-16.1-27.27c-6.87-2.7-10.64-7.78-15.09-13.13
		c-11.23-13.49-24.74-24.4-41.13-32.2c-3.58,4.18-6.48,7.56-9.97,11.64c-0.56-24.4-0.56-24.4-19.03-39.1
		c-1.08,4.15-2.43,7.43-2.71,10.79c-1,11.93-2.36,23.89-2.23,35.82c0.14,12.36,0.68,24.95,3.13,37.01
		c4.95,24.35,4.37,48.51,0.82,72.83c-0.68,4.65-0.72,9.42-1.66,14.01c-0.75,3.66-1.76,7.63-3.91,10.52
		c-1.36,1.83-5.21,2.87-7.64,2.46c-1.61-0.27-3.53-3.61-3.82-5.77c-0.49-3.77,0.17-7.69,0.35-11.54
		c1.08-23.49,2.94-46.98,3.03-70.47c0.09-22.56-1.73-45.12-2.52-67.68c-0.13-3.8,0.32-7.75,1.26-11.43
		c4.08-15.9,5.34-31.12-5.89-45.22c-2.45-3.07-2.13-8.36-3.32-13.68c6.43-0.68,10.93-1.16,15.25-1.61
		c9.93-12.47,8.06-32.79,24.29-37.57c6.15-8.94,10.84-15.93,15.69-22.79c17.04-24.06,35.12-47.44,48.02-74.2
		c1.65-3.43,4.14-6.47,6.3-9.64c6.39-9.41,12.86-18.77,19.14-28.25c0.88-1.32,1.28-3.26,1.19-4.87
		c-0.54-9.03,4.67-11.98,12.34-12.62c6.15,3.83,6.77,9.27,4.28,14.74c-5.48,12-11.15,23.94-17.51,35.49
		c-5.54,10.07-12.75,19.23-18.13,29.37c-9.59,18.09-25.12,31.16-37.79,46.64c-7.84,9.59-15.48,19.22-18.67,31.73
		c-0.95,3.74-4.3,7.36-7.43,9.98c-17.71,14.8-15.25,31.5,9.64,44.73c1.78-5.25,3.72-10.12,5.09-15.14c3.26-11.98,5.97-24.11,9.5-36
		c1.38-4.66,4.35-8.84,7.33-14.67c4.81,6.55,2.01,11.1,0.95,15.85c-4.01,17.9-7.57,35.9-11.54,53.81
		c-1.55,7.02,0.41,12.84,5.41,17.49c11.58,10.77,23.18,21.56,35.22,31.8c8.14,6.93,17.21,12.77,25.55,19.49
		c3.52,2.83,6.23,6.66,10.57,11.42c-4.53,1.07-7.08,1.68-10.25,2.43c0.95,10.48,9.66,13.16,17.14,16.32
		c4.59,1.94,10.41,3.58,14.96,2.46c10.49-2.6,16.45,3.97,23.42,9.04c9.62,7,19.52,13.66,28.81,21.08
		C798.34,586.52,806.35,589.79,805.58,599.78z M607.86,442.01c-0.44,10.99,5.22,14.74,13.62,18.58
		C620.34,451.05,614.24,447.65,607.86,442.01z"/>
	<path class="st1" d="M754.1,527.86c-16.23,2.6-17.3,1.4-24.37-12.02c-6.58-12.49-6.03-25.31-5.37-38.88
		c3.89-1.47,7.37-2.78,11.09-4.19c0.1-1.17,0.76-2.78,0.23-3.52c-2.89-4.05-5.46-8.71-9.3-11.63c-7.51-5.72-10.42-13.39-11.24-22.08
		c-0.27-2.91,1.38-5.99,2.17-9.03C751.37,436.14,771.71,493.4,754.1,527.86z"/>
</g>
</svg>
